<?xml version="1.0" standalone="no"?>
<!DOCTYPE svg PUBLIC "-//W3C//DTD SVG 20010904//EN"
 "http://www.w3.org/TR/2001/REC-SVG-20010904/DTD/svg10.dtd">
<svg version="1.0" xmlns="http://www.w3.org/2000/svg"
 width="1168.000000pt" height="1168.000000pt" viewBox="0 0 1168.000000 1168.000000"
 preserveAspectRatio="xMidYMid meet">
<metadata>
Created by potrace 1.11, written by Peter Selinger 2001-2013
</metadata>
<g transform="translate(0.000000,1168.000000) scale(0.100000,-0.100000)"
fill="#000000" stroke="none">
<path d="M2923 9912 c-1602 -801 -2913 -1459 -2913 -1462 0 -3 1240 -625 2755
-1383 l2755 -1377 0 -2072 0 -2073 -1027 1026 c-834 832 -1037 1030 -1078
1049 -72 34 -199 34 -270 0 -64 -31 -124 -91 -155 -155 -34 -71 -34 -198 -1
-270 20 -41 282 -309 1437 -1465 l1414 -1415 1414 1415 c1155 1156 1417 1424
1437 1465 33 72 33 199 -1 270 -31 64 -91 124 -155 155 -71 34 -198 34 -270 0
-41 -19 -244 -217 -1077 -1049 l-1028 -1026 0 2073 0 2072 2755 1377 c1515
758 2755 1380 2755 1383 0 4 -5826 2921 -5833 2919 -1 0 -1313 -656 -2914
-1457z m5112 -359 c1207 -604 2195 -1100 2195 -1103 0 -3 -988 -499 -2195
-1103 l-2195 -1097 -2195 1097 c-1207 604 -2195 1100 -2195 1103 0 4 4374
2196 4387 2199 2 1 991 -493 2198 -1096z"/>
</g>
</svg>
